<svg width="170" height="99" viewBox="0 0 170 99" fill="none" xmlns="http://www.w3.org/2000/svg">
<g clip-path="url(#clip0_98_5477)">
<path d="M54.5543 6.95775C51.3474 6.95775 48.6766 7.23315 45.3803 6.74137C40.4756 6.41679 35.2929 6.69219 30.6563 8.41342C26.7842 9.85925 23.2397 12.5247 21.4724 16.2327C21.9093 13.7148 22.4951 11.2067 23.5773 8.89536C24.6595 6.584 26.258 4.44967 28.4125 3.05302C30.289 1.8334 32.5626 1.19409 34.8064 1.26294C38.2417 1.38097 41.3295 3.03335 44.3676 4.43984C47.644 5.95452 50.9105 6.92824 54.5543 6.95775Z" fill="#F1D675"/>
<path d="M12.2684 82.2082C11.9805 82.2082 11.6827 82.1 11.4543 81.8837C-0.301082 70.9465 -0.708151 58.947 2.83634 51.3638C4.51426 47.7541 7.23467 44.5477 9.85581 41.4495C11.355 39.6791 12.7649 38.0169 13.996 36.2858C16.6966 32.4893 18.5333 27.778 19.2978 22.6635L19.5361 21.0406C20.7176 12.8574 22.336 1.64485 32.751 0.218683C36.9408 -0.351781 40.0485 1.12356 43.3448 2.68742C46.512 4.19227 49.7884 5.74629 54.5541 5.79547C55.2093 5.8053 55.7455 6.33643 55.7356 6.98557C55.7256 7.63472 55.1994 8.15601 54.5441 8.15601H54.5342C49.2423 8.097 45.5588 6.34626 42.3221 4.80207C39.2343 3.33657 36.5636 2.06778 33.0886 2.53988C24.4607 3.72016 23.0409 13.5066 21.909 21.3652L21.6708 22.9979C20.8467 28.4764 18.8709 33.5319 15.9619 37.6333C14.6711 39.443 13.162 41.2331 11.7025 42.9544C9.18067 45.9345 6.56946 49.0229 5.02061 52.3375C0.155631 62.7633 6.00354 73.5431 13.1024 80.1526C13.579 80.5952 13.6088 81.3427 13.1521 81.8246C12.8939 82.0804 12.5862 82.2082 12.2684 82.2082Z" fill="#769763"/>
<path d="M12.2586 82.2099C11.7126 82.2099 11.2161 81.8362 11.097 81.2854C7.82058 66.5615 17.1435 59.8831 17.5406 59.6077C23.9842 54.4047 27.7472 49.2607 27.7869 45.5232C27.7968 44.1363 27.3004 43.0446 26.2678 42.1692C25.0168 41.1168 23.2197 41.0676 21.4723 42.0512C18.7718 43.5659 16.0315 47.7657 17.1633 54.6408C17.2725 55.2801 16.8258 55.8899 16.1804 55.9981C15.5251 56.1063 14.9195 55.6637 14.8103 55.0243C13.4798 46.9493 16.935 41.884 20.3008 39.9956C22.912 38.53 25.7912 38.6776 27.8067 40.3693C29.3754 41.6873 30.1896 43.4774 30.1697 45.5428C30.1201 50.0377 26.1487 55.703 18.9803 61.4863C18.5732 61.7814 10.5013 67.6336 13.4302 80.774C13.5692 81.4133 13.1621 82.0427 12.5267 82.1804C12.4374 82.2001 12.348 82.2099 12.2586 82.2099Z" fill="#769763"/>
<path d="M16.7862 98.3895C16.1309 98.3895 15.5948 97.8584 15.5948 97.2092C15.5948 95.9011 15.565 94.5634 15.5352 93.2258C15.4062 87.0884 15.2672 80.7542 17.7493 74.9414C19.3081 71.2826 22.0384 68.686 24.6893 66.1779C29.4848 61.624 31.9868 57.8471 33.3272 53.1162C35.0944 46.8903 35.8291 39.6316 35.5114 31.5369C35.1044 21.3079 37.3681 13.941 42.243 9.63304C47.7434 4.77426 54.4551 5.74798 54.7331 5.78732C55.3884 5.88568 55.8252 6.49549 55.7259 7.1348C55.6266 7.77411 55.021 8.22655 54.3657 8.11836C54.3061 8.10852 48.4384 7.29217 43.7918 11.4133C39.4928 15.2295 37.5071 21.9669 37.8844 31.4386C38.212 39.7791 37.4475 47.2837 35.6206 53.7457C33.8037 60.1487 29.9018 64.4763 26.3375 67.8696C23.756 70.3187 21.3136 72.6399 19.9435 75.8463C17.6699 81.1968 17.7989 87.2851 17.9181 93.1668C17.9479 94.5241 17.9776 95.8716 17.9776 97.1994C17.9776 97.8682 17.4415 98.3895 16.7862 98.3895Z" fill="#769763"/>
<path d="M72.5647 66.7385C71.9094 66.7385 71.3733 66.2074 71.3733 65.5583V31.9599C71.3733 31.3107 71.9094 30.7796 72.5647 30.7796C73.22 30.7796 73.7561 31.3107 73.7561 31.9599V65.5583C73.7561 66.2074 73.22 66.7385 72.5647 66.7385Z" fill="#769763"/>
<path d="M80.1898 43.9495H72.5647C71.9094 43.9495 71.3733 43.4183 71.3733 42.7692C71.3733 42.1201 71.9094 41.5889 72.5647 41.5889H80.1898C82.5429 41.5889 84.4591 39.6907 84.4591 37.3695C84.4591 35.0384 82.5429 33.1401 80.1898 33.1401H72.5647C71.9094 33.1401 71.3733 32.609 71.3733 31.9599C71.3733 31.3107 71.9094 30.7796 72.5647 30.7796H80.1898C83.8534 30.7796 86.8419 33.7303 86.8419 37.3695C86.8419 41.0086 83.8534 43.9495 80.1898 43.9495Z" fill="#769763"/>
<path d="M86.7227 66.7386C86.1866 66.7386 85.6902 66.3746 85.5611 65.8337L80.1004 43.0446C79.9515 42.4053 80.3486 41.7758 80.984 41.6184C81.6294 41.4709 82.2648 41.8643 82.4237 42.4938L87.8844 65.2829C88.0333 65.9222 87.6362 66.5517 87.0007 66.7091C86.9114 66.7287 86.8121 66.7386 86.7227 66.7386Z" fill="#769763"/>
<path d="M120.539 67.0533C118.067 67.0533 115.972 65.2239 115.664 62.7945L111.782 32.4221C111.703 31.773 112.159 31.1829 112.815 31.1042C113.47 31.0156 114.066 31.4779 114.145 32.1271L118.037 62.5092C118.196 63.7584 119.278 64.7026 120.549 64.7026C121.82 64.7026 122.892 63.7584 123.051 62.5092L126.933 32.1369C127.013 31.4878 127.608 31.0255 128.264 31.114C128.919 31.1927 129.376 31.7828 129.296 32.432L125.414 62.8043C125.106 65.2239 123.011 67.0533 120.539 67.0533Z" fill="#769763"/>
<path d="M167.928 67.0533H154.951C154.296 67.0533 153.76 66.5222 153.76 65.873V32.5992C153.76 31.95 154.296 31.4189 154.951 31.4189C155.607 31.4189 156.143 31.95 156.143 32.5992V64.6928H167.918C168.573 64.6928 169.11 65.2239 169.11 65.873C169.11 66.5222 168.583 67.0533 167.928 67.0533Z" fill="#769763"/>
<path d="M104.991 49.9394H95.4102C94.7549 49.9394 94.2188 49.4082 94.2188 48.7591C94.2188 48.1099 94.7549 47.5788 95.4102 47.5788H104.991C105.647 47.5788 106.183 48.1099 106.183 48.7591C106.183 49.4082 105.647 49.9394 104.991 49.9394Z" fill="#F1D675"/>
<path d="M107.662 66.7385C107.066 66.7385 106.56 66.3058 106.481 65.7058L102.599 35.3335C102.44 34.0844 101.358 33.1401 100.087 33.1401C98.8158 33.1401 97.7435 34.0844 97.5747 35.3335L93.7125 65.7058C93.6331 66.355 93.0275 66.8172 92.3821 66.7287C91.7268 66.65 91.2701 66.0599 91.3495 65.4107L95.2316 35.0384C95.5394 32.609 97.6343 30.7796 100.107 30.7796C102.579 30.7796 104.674 32.609 104.981 35.0384L108.863 65.4107C108.943 66.0599 108.486 66.65 107.831 66.7287C107.761 66.7287 107.712 66.7385 107.662 66.7385Z" fill="#769763"/>
<path d="M144.973 48.6509H135.124C134.469 48.6509 133.933 48.1198 133.933 47.4706C133.933 46.8215 134.469 46.2903 135.124 46.2903H144.973C145.629 46.2903 146.165 46.8215 146.165 47.4706C146.165 48.1198 145.629 48.6509 144.973 48.6509Z" fill="#F1D675"/>
<path d="M146.861 66.8467H135.135C134.48 66.8467 133.944 66.3156 133.944 65.6664V32.7172C133.944 32.068 134.48 31.5369 135.135 31.5369H146.543C147.198 31.5369 147.734 32.068 147.734 32.7172C147.734 33.3663 147.198 33.8975 146.543 33.8975H136.326V64.4862H146.861C147.516 64.4862 148.052 65.0173 148.052 65.6664C148.052 66.3156 147.516 66.8467 146.861 66.8467Z" fill="#769763"/>
<path d="M59.1909 66.7385C58.5357 66.7385 57.9995 66.2074 57.9995 65.5583V31.9599C57.9995 31.3107 58.5357 30.7796 59.1909 30.7796C59.8462 30.7796 60.3824 31.3107 60.3824 31.9599V65.5681C60.3824 66.2173 59.8462 66.7385 59.1909 66.7385Z" fill="#769763"/>
<path d="M66.2699 33.1401H52.1118C51.4565 33.1401 50.9204 32.609 50.9204 31.9599C50.9204 31.3107 51.4565 30.7796 52.1118 30.7796H66.2699C66.9252 30.7796 67.4613 31.3107 67.4613 31.9599C67.4613 32.609 66.9351 33.1401 66.2699 33.1401Z" fill="#769763"/>
<path d="M62.8247 79.7314C62.7254 79.6428 62.6758 79.5347 62.6758 79.4068C62.6758 79.2593 62.7354 79.1412 62.8545 79.0625C62.9737 78.974 63.1127 78.9249 63.2616 78.9249C63.2715 78.9249 63.2814 78.9249 63.2814 78.9249C63.4403 78.9347 63.5793 78.9839 63.6984 79.0822C64.7409 79.9576 65.5551 80.7739 66.1409 81.5411C66.2203 81.6493 66.26 81.7673 66.26 81.8854C66.26 81.9247 66.26 81.964 66.2501 82.0034C66.2302 82.1608 66.1409 82.2984 66.0019 82.4066C65.9026 82.4853 65.7934 82.5247 65.6742 82.5247C65.6345 82.5247 65.5948 82.5247 65.5551 82.5148C65.3962 82.4853 65.2671 82.3968 65.1679 82.2591C65.0487 82.0919 64.9097 81.9149 64.7608 81.7378C64.7211 81.6886 64.6714 81.669 64.6218 81.6788C63.6488 81.728 60.9482 81.8362 56.54 82.0231C56.53 82.0231 56.5201 82.0231 56.5201 82.0231C56.3712 82.0231 56.2421 81.9739 56.1329 81.8854C56.0038 81.7673 55.9343 81.6198 55.9343 81.4428C55.9343 81.3149 55.984 81.1969 56.0733 81.0985C56.1726 80.9805 56.3017 80.9215 56.4605 80.9116L57.6122 80.8723C57.6619 80.8723 57.7115 80.8526 57.7413 80.8034C58.3271 79.9182 58.8434 78.974 59.31 77.9806C59.3895 77.8233 59.5086 77.6954 59.6873 77.6265C59.7767 77.5872 59.876 77.5675 59.9653 77.5675C60.0447 77.5675 60.1242 77.5774 60.1937 77.6069C60.3525 77.6561 60.4717 77.7642 60.5312 77.9315C60.561 78.0003 60.5809 78.0692 60.5809 78.138C60.5809 78.2265 60.561 78.3052 60.5114 78.3937C60.0447 79.2298 59.5682 80.0166 59.0717 80.7543C59.0618 80.7739 59.0618 80.7838 59.0717 80.8034C59.0817 80.8231 59.0916 80.8231 59.1115 80.8231C62.1099 80.7051 63.6389 80.6461 63.7084 80.6461C63.7282 80.6461 63.7382 80.6362 63.7481 80.6264C63.758 80.6166 63.7481 80.5969 63.7382 80.5772C63.4006 80.2625 63.1027 79.9773 62.8247 79.7314ZM57.8108 88.2982C57.652 88.2982 57.5229 88.2391 57.4137 88.131C57.3045 88.0228 57.2449 87.8851 57.2449 87.7375V83.9213C57.2449 83.7246 57.3144 83.5672 57.4534 83.4394C57.5924 83.3115 57.7512 83.2427 57.9399 83.2427H64.2346C64.4232 83.2427 64.5821 83.3115 64.7211 83.4394C64.8601 83.5672 64.9296 83.7344 64.9296 83.9213V87.6982C64.9296 87.8556 64.87 87.9933 64.7509 88.1113C64.6317 88.2293 64.4927 88.2883 64.3339 88.2883H64.175C64.0559 88.2883 63.9467 88.249 63.8573 88.1605C63.7679 88.0719 63.7282 87.9736 63.7282 87.8654C63.7282 87.8261 63.7084 87.8064 63.6786 87.8064H58.4462C58.4165 87.8064 58.3966 87.8261 58.3966 87.8654C58.3966 87.9834 58.3569 88.0916 58.2675 88.1801C58.1782 88.2687 58.069 88.308 57.9498 88.308H57.8108V88.2982ZM63.7084 84.3639C63.7084 84.3147 63.6786 84.2852 63.6289 84.2852H58.4661C58.4165 84.2852 58.3867 84.3147 58.3867 84.3639V86.6458C58.3867 86.7048 58.4165 86.7343 58.4661 86.7343H63.6289C63.6786 86.7343 63.7084 86.7048 63.7084 86.6458V84.3639Z" fill="#769763"/>
<path d="M77.0227 81.4919C77.1418 81.5805 77.2014 81.6985 77.2212 81.846C77.2311 81.8657 77.2311 81.8952 77.2311 81.9149C77.2311 82.0329 77.1914 82.1509 77.1021 82.2591C77.0226 82.3673 76.9134 82.4263 76.7744 82.446C76.7546 82.446 76.7347 82.446 76.7149 82.446C76.5957 82.446 76.4865 82.4067 76.3872 82.328C76.1192 82.1214 75.8213 81.905 75.4937 81.6985C75.3844 81.6395 75.3149 81.5411 75.2951 81.4133C75.2852 81.3936 75.2852 81.3641 75.2852 81.3346C75.2852 81.2461 75.3149 81.1575 75.3745 81.0788C75.4639 80.9707 75.5731 80.9018 75.7121 80.8723C75.7617 80.8625 75.8014 80.8625 75.8412 80.8625C75.9305 80.8625 76.0199 80.8821 76.1092 80.9313C76.4666 81.1182 76.7744 81.3051 77.0227 81.4919ZM76.5262 87.6392C76.4766 87.7769 76.3674 87.8654 76.2284 87.9146C76.1787 87.9343 76.1192 87.9343 76.0695 87.9343C75.9802 87.9343 75.9007 87.9146 75.8213 87.8753C75.6823 87.7867 75.583 87.6785 75.5334 87.531C75.5135 87.4622 75.5135 87.3933 75.5135 87.3343C75.5135 87.2458 75.5334 87.1671 75.5632 87.0786C75.9404 86.213 76.3078 85.3082 76.6553 84.3344C76.695 84.2164 76.7744 84.1279 76.9035 84.0885C77.0326 84.0492 77.1517 84.059 77.2609 84.1279C77.3801 84.2164 77.4694 84.3246 77.529 84.4721C77.5588 84.5508 77.5786 84.6295 77.5786 84.6983C77.5786 84.7672 77.5687 84.836 77.5389 84.9049C77.2212 85.8688 76.8837 86.7737 76.5262 87.6392ZM77.2709 78.4822C77.3999 78.5806 77.4694 78.7085 77.4694 78.8757C77.4694 79.0134 77.4198 79.1412 77.3304 79.2494C77.2411 79.3576 77.1319 79.4068 76.9829 79.4068H76.973C76.8439 79.4068 76.7248 79.3674 76.6255 79.2789C76.3872 79.0625 76.0894 78.8363 75.7419 78.6003C75.6426 78.5314 75.583 78.4331 75.5632 78.315C75.5433 78.197 75.5731 78.079 75.6624 77.9806C75.7518 77.8823 75.8709 77.8233 76.0099 77.7938C76.0298 77.7839 76.0695 77.7839 76.1092 77.7839C76.2085 77.7839 76.3078 77.8134 76.3971 77.8626C76.7248 78.0692 77.0127 78.2757 77.2709 78.4822ZM77.8368 81.6887C77.8566 81.6001 77.9063 81.5214 77.9857 81.4723C78.0453 81.4329 78.1049 81.4133 78.1744 81.4133C78.1942 81.4133 78.224 81.4133 78.2538 81.4231C78.3431 81.4428 78.4226 81.4821 78.4722 81.5706C78.5219 81.6591 78.5417 81.7378 78.5219 81.8264C78.4226 82.2296 78.2935 82.5837 78.1446 82.8886C78.1049 82.9673 78.0453 83.0165 77.9559 83.046C77.8666 83.0755 77.7772 83.0656 77.6978 83.0263C77.6184 82.987 77.5687 82.9279 77.5389 82.8394C77.5191 82.8001 77.5191 82.7607 77.5191 82.7214C77.5191 82.6722 77.529 82.6329 77.5588 82.5837C77.668 82.328 77.7673 82.0231 77.8368 81.6887ZM77.9063 79.2101C77.8269 79.1511 77.7871 79.0724 77.7772 78.9839C77.7673 78.8953 77.7871 78.8068 77.8269 78.7281L77.9063 78.6101C77.9361 78.5609 77.9758 78.5413 78.0354 78.5314C78.0949 78.5216 78.1446 78.5314 78.1843 78.5708C78.2041 78.5806 78.2141 78.5708 78.224 78.5609C78.3829 78.2757 78.5119 78.02 78.6211 77.7839C78.6609 77.6954 78.7304 77.6266 78.8296 77.5872C78.8694 77.5675 78.9091 77.5675 78.9587 77.5675C79.0084 77.5675 79.0481 77.5774 79.0977 77.6069C79.1871 77.6462 79.2566 77.7151 79.2864 77.8134C79.3161 77.9118 79.3062 78.0003 79.2466 78.0888C79.0183 78.4626 78.8495 78.738 78.7304 78.915C78.7006 78.9642 78.7105 79.0035 78.7502 79.0429C78.7999 79.0921 78.8694 79.1511 78.9488 79.2199C78.9885 79.2593 79.0183 79.2593 79.058 79.2101C79.1672 79.0429 79.2566 78.8855 79.336 78.7478C79.3856 78.6593 79.4551 78.6101 79.5644 78.5708C79.6736 78.5314 79.7629 78.5511 79.8523 78.6101C79.9416 78.6593 80.0012 78.738 80.0211 78.8363C80.0409 78.9347 80.0211 79.0232 79.9615 79.1019C79.6239 79.5642 79.3161 79.9576 79.058 80.2822C79.0481 80.3018 79.0481 80.3117 79.058 80.3215C79.0679 80.3313 79.0779 80.3412 79.0977 80.3412L79.6438 80.3313C79.6736 80.3313 79.6835 80.3117 79.6835 80.2822C79.6736 80.2625 79.6636 80.233 79.6636 80.2035C79.6339 80.1346 79.6339 80.0658 79.6636 79.9969C79.6934 79.9281 79.7431 79.8887 79.8026 79.8691C79.8821 79.8396 79.9516 79.8396 80.0211 79.8592C80.0906 79.8789 80.1402 79.9379 80.17 80.0068C80.2792 80.2428 80.3686 80.4985 80.448 80.7543C80.4679 80.8428 80.4579 80.9215 80.4182 80.9903C80.3785 81.0592 80.3189 81.1182 80.2395 81.1477L80.1998 81.1575C80.1402 81.1772 80.0806 81.1772 80.0111 81.1477C79.9416 81.1182 79.9119 81.069 79.892 81.0002C79.892 80.9805 79.8821 80.9608 79.8523 80.9608L79.5147 80.9805C79.4651 80.9903 79.4353 81.0198 79.4353 81.069V82.9968C79.4353 83.0951 79.3956 83.1837 79.3261 83.2525C79.2566 83.3214 79.1672 83.3607 79.0679 83.3607C78.9686 83.3607 78.8793 83.3214 78.8098 83.2525C78.7403 83.1837 78.7006 83.0951 78.7006 82.9968V81.128C78.7006 81.069 78.6708 81.0395 78.6211 81.0493C78.4424 81.069 78.2339 81.0788 77.9956 81.0985C77.8964 81.1084 77.807 81.0788 77.7276 81.01C77.6481 80.9411 77.6084 80.8625 77.5886 80.7641C77.5786 80.6658 77.6084 80.5772 77.6779 80.5084C77.7474 80.4395 77.8269 80.4002 77.9162 80.4002L78.1446 80.3904C78.1942 80.3904 78.2339 80.3707 78.2637 80.3313C78.363 80.2133 78.4623 80.0953 78.5516 79.9576C78.5914 79.9084 78.5914 79.8691 78.5516 79.8199C78.3332 79.5937 78.1247 79.397 77.9063 79.2101ZM79.5246 85.7901C79.5147 85.8098 79.5147 85.8196 79.5346 85.8393C79.5544 85.859 79.5644 85.8688 79.5842 85.8688H84.8761C85.0548 85.8688 85.2038 85.9376 85.3229 86.0753C85.4123 86.1737 85.4619 86.2819 85.4619 86.4097C85.4619 86.4491 85.452 86.4884 85.442 86.5376C85.2633 87.3048 85.035 87.8064 84.7471 88.0228C84.5187 88.1802 84.1911 88.2687 83.7741 88.2883C83.228 88.2883 82.7713 88.2785 82.394 88.2687C82.2748 88.2687 82.1557 88.2293 82.0663 88.1408C81.977 88.0523 81.8976 87.9441 81.8479 87.8162C81.8181 87.7277 81.8281 87.649 81.8777 87.5703C81.9273 87.4917 81.9968 87.4523 82.0961 87.4622C82.5628 87.4917 83.0195 87.5113 83.4563 87.5113C83.7046 87.5113 83.8733 87.4818 83.9726 87.4326C84.1315 87.3146 84.2705 87.0589 84.3797 86.6753C84.3797 86.6556 84.3698 86.636 84.3598 86.6163C84.3499 86.5966 84.3301 86.5868 84.3102 86.5868H79.3658C79.336 86.5868 79.3161 86.6065 79.3062 86.636C79.2864 86.7245 79.2268 86.8032 79.1474 86.8523C79.0679 86.9015 78.9786 86.9212 78.8892 86.9015L78.7105 86.8819C78.5914 86.8622 78.4921 86.8032 78.4226 86.6851C78.3729 86.6163 78.3531 86.5474 78.3531 86.4688C78.3531 86.4294 78.363 86.3901 78.3729 86.3409C78.4623 86.0655 78.5516 85.7508 78.641 85.3967C78.6906 85.2 78.7899 85.0426 78.9488 84.9246C79.1076 84.8065 79.2864 84.7377 79.475 84.7377H83.9031C83.9627 84.7377 83.9925 84.7082 83.9925 84.6492V84.3148C83.9925 84.2656 83.9627 84.2361 83.9031 84.2361H78.7105C78.6211 84.2361 78.5417 84.2066 78.4722 84.1377C78.4027 84.0689 78.3729 83.9902 78.3729 83.9017C78.3729 83.8131 78.4027 83.7345 78.4722 83.6656C78.5417 83.5968 78.6211 83.5673 78.7105 83.5673H84.34C84.5286 83.5673 84.6875 83.6361 84.8265 83.7738C84.9655 83.9115 85.035 84.0689 85.035 84.2557V84.7279C85.035 84.9147 84.9655 85.0721 84.8265 85.2098C84.6875 85.3475 84.5286 85.4164 84.34 85.4164H79.7331C79.6736 85.4164 79.6339 85.4459 79.614 85.495L79.5246 85.7901ZM80.3884 82.3378C80.4083 82.4263 80.3884 82.505 80.3388 82.5739C80.2891 82.6427 80.2296 82.7017 80.1402 82.7312C80.0608 82.7509 79.9913 82.7312 79.9218 82.6919C79.8523 82.6525 79.8126 82.5837 79.7927 82.505C79.753 82.2788 79.7034 82.0427 79.6438 81.8165C79.6239 81.728 79.6438 81.6592 79.6835 81.5903C79.7232 81.5215 79.7828 81.4821 79.8622 81.4624C79.9516 81.4428 80.0211 81.4624 80.0906 81.5018C80.1601 81.5411 80.2097 81.6001 80.2296 81.6788C80.2891 81.8854 80.3388 82.1116 80.3884 82.3378ZM83.1088 79.0822C83.0989 79.0724 83.0989 79.0822 83.0989 79.0921C83.0989 79.1412 83.0791 79.1707 83.0493 79.2002C83.0195 79.2298 82.9798 79.2396 82.9301 79.2396H80.5671C80.4778 79.2396 80.4083 79.2101 80.3487 79.1511C80.2891 79.0921 80.2593 79.0232 80.2593 78.9347C80.2593 78.8462 80.2891 78.7773 80.3487 78.7183C80.4083 78.6593 80.4877 78.6298 80.5671 78.6298H82.9103C82.9599 78.6298 82.9996 78.6495 83.0393 78.6888C83.0791 78.7281 83.0989 78.7773 83.0989 78.8265H83.1088L83.2677 78.6101C83.3074 78.5708 83.3571 78.5511 83.4067 78.5413C83.4563 78.5314 83.506 78.5413 83.5457 78.5806C83.5656 78.5904 83.5755 78.5806 83.5854 78.5708C83.7443 78.3052 83.8833 78.0396 84.0024 77.7839C84.0521 77.6954 84.1216 77.6265 84.2109 77.597C84.2506 77.5774 84.2903 77.5774 84.3301 77.5774C84.3797 77.5774 84.4393 77.5872 84.4889 77.6167C84.5783 77.6659 84.6279 77.7347 84.6577 77.8331C84.6875 77.9315 84.6676 78.02 84.618 78.1085C84.3896 78.4822 84.2109 78.7478 84.0818 78.9249C84.0521 78.974 84.0521 79.0134 84.0918 79.0527C84.1712 79.1216 84.2407 79.1904 84.3003 79.2593C84.3499 79.3084 84.3896 79.3084 84.4194 79.2593C84.5386 79.0822 84.6676 78.8953 84.7967 78.6986C84.8463 78.6101 84.9258 78.5511 85.0251 78.5216C85.1243 78.4921 85.2236 78.5118 85.313 78.5609C85.4023 78.6101 85.452 78.6888 85.4718 78.7871C85.4917 78.8855 85.4718 78.974 85.4123 79.0429C84.9853 79.5838 84.6478 80.0068 84.3896 80.292C84.3797 80.3117 84.3797 80.3215 84.3896 80.3412C84.3996 80.3608 84.4095 80.3608 84.4293 80.351L85.1343 80.3412C85.1641 80.3412 85.174 80.3215 85.1541 80.292C85.1343 80.2527 85.1243 80.2133 85.1045 80.174C85.0648 80.1051 85.0648 80.0363 85.0846 79.9576C85.1045 79.8789 85.1641 79.8297 85.2335 79.8002C85.313 79.7609 85.3924 79.7609 85.4818 79.7805C85.5711 79.8002 85.6307 79.8592 85.6704 79.9379C85.7995 80.174 85.9186 80.4199 86.0179 80.6756C86.0477 80.7641 86.0477 80.8526 86.008 80.9411C85.9683 81.0297 85.9087 81.0887 85.8293 81.128L85.7697 81.1477C85.7101 81.1772 85.6406 81.1772 85.581 81.1477C85.5215 81.1182 85.4718 81.069 85.4619 81.0002C85.452 80.9805 85.442 80.9608 85.4123 80.9608L84.9655 81.0002C84.9158 81.0002 84.8861 81.0297 84.8861 81.0887V82.987C84.8861 83.0853 84.8463 83.1738 84.7768 83.2427C84.7073 83.3115 84.618 83.3509 84.5088 83.3509C84.3996 83.3509 84.3102 83.3115 84.2407 83.2427C84.1712 83.1738 84.1315 83.0853 84.1315 82.987V81.128C84.1315 81.069 84.1017 81.0395 84.0521 81.0493L83.4166 81.0887C83.3173 81.0985 83.228 81.069 83.1486 81.0002C83.0691 80.9313 83.0294 80.8526 83.0195 80.7543C83.0096 80.6559 83.0393 80.5674 83.0989 80.4985C83.1585 80.4297 83.2379 80.3805 83.3471 80.3805H83.4861C83.5358 80.3805 83.5755 80.3608 83.6053 80.3313C83.6549 80.2625 83.7443 80.1543 83.8733 79.9969C83.9131 79.9478 83.9131 79.9084 83.8733 79.8592C83.6748 79.6035 83.4266 79.3478 83.1088 79.0822ZM81.2721 83.1738C81.0834 83.1738 80.9246 83.105 80.7856 82.9771C80.6466 82.8493 80.5771 82.6821 80.5771 82.4952V82.1116C80.5771 81.9149 80.6466 81.7575 80.7856 81.6296C80.9246 81.5018 81.0834 81.4329 81.2721 81.4329H82.1458C82.3443 81.4329 82.5032 81.5018 82.6323 81.6296C82.7613 81.7575 82.8308 81.9247 82.8308 82.1116V82.4952C82.8308 82.6919 82.7613 82.8493 82.6323 82.9771C82.5032 83.105 82.3344 83.1738 82.1458 83.1738H81.2721ZM82.5429 79.6133C82.6223 79.6133 82.6819 79.6429 82.7415 79.692C82.8011 79.7412 82.8209 79.8101 82.8209 79.8887C82.8209 79.9674 82.7911 80.0264 82.7415 80.0854C82.6918 80.1445 82.6223 80.1641 82.5429 80.1641H80.8948C80.8153 80.1641 80.7558 80.1346 80.6962 80.0854C80.6366 80.0363 80.6168 79.9674 80.6168 79.8887C80.6168 79.8101 80.6466 79.751 80.6962 79.692C80.7459 79.633 80.8153 79.6133 80.8948 79.6133H82.5429ZM80.8849 81.0592C80.8054 81.0592 80.7458 81.0297 80.6863 80.9805C80.6267 80.9313 80.6069 80.8625 80.6069 80.7838C80.6069 80.7051 80.6366 80.6461 80.6863 80.5871C80.7359 80.5281 80.8054 80.5084 80.8849 80.5084H82.533C82.6124 80.5084 82.672 80.5379 82.7316 80.5871C82.7911 80.6362 82.811 80.7051 82.811 80.7838C82.811 80.8625 82.7812 80.9215 82.7316 80.9805C82.6819 81.0395 82.6124 81.0592 82.533 81.0592H80.8849ZM82.4536 77.7052C82.533 77.7052 82.5926 77.7347 82.6521 77.7938C82.7117 77.8528 82.7316 77.9216 82.7316 78.0003C82.7316 78.079 82.7018 78.138 82.6521 78.197C82.6025 78.256 82.533 78.2757 82.4536 78.2757H80.9742C80.8948 78.2757 80.8253 78.2462 80.7657 78.197C80.7061 78.1478 80.6764 78.079 80.6764 78.0003C80.6764 77.9216 80.7061 77.8528 80.7657 77.7938C80.8253 77.7347 80.8948 77.7052 80.9742 77.7052H82.4536ZM81.3713 81.9739C81.3118 81.9739 81.282 82.0034 81.282 82.0624V82.5443C81.282 82.5935 81.3118 82.623 81.3713 82.623H82.0465C82.0961 82.623 82.1259 82.5935 82.1259 82.5443V82.0624C82.1259 82.0034 82.0961 81.9739 82.0465 81.9739H81.3713ZM83.2776 81.6887C83.2975 81.6001 83.3571 81.5214 83.4365 81.4723C83.5159 81.4231 83.6053 81.4034 83.6946 81.4231C83.784 81.4428 83.8634 81.4919 83.9131 81.5706C83.9627 81.6493 83.9726 81.7378 83.9528 81.8264C83.8535 82.2198 83.7443 82.5542 83.6251 82.8296C83.5854 82.9181 83.5159 82.9673 83.4266 83.0066C83.3372 83.046 83.2478 83.0263 83.1684 82.987C83.0791 82.9378 83.0294 82.8689 82.9897 82.7804C82.95 82.6919 82.9599 82.6034 82.9996 82.5247C83.1088 82.2886 83.1982 82.0132 83.2776 81.6887ZM85.174 81.7968C85.1442 81.728 85.1442 81.6591 85.1839 81.5805C85.2236 81.5018 85.2733 81.4526 85.3527 81.4329C85.4421 81.4133 85.5215 81.4133 85.6009 81.4526C85.6803 81.4919 85.73 81.551 85.7598 81.6296C85.8988 81.9641 86.008 82.2591 86.0874 82.5443C86.0973 82.5739 86.0973 82.6034 86.0973 82.6329C86.0973 82.6821 86.0775 82.7411 86.0477 82.7804C85.998 82.8689 85.9385 82.9181 85.8491 82.9378C85.7697 82.9673 85.7002 82.9673 85.6208 82.9181C85.5413 82.8689 85.5016 82.8099 85.4718 82.7312C85.3924 82.446 85.2931 82.1313 85.174 81.7968Z" fill="#769763"/>
<path d="M104.237 87.2065H104.654C104.743 87.2065 104.803 87.1474 104.832 87.0196C104.862 86.8917 104.892 86.6163 104.912 86.1934C104.912 86.095 104.952 86.0163 105.041 85.977C105.13 85.9377 105.22 85.9278 105.319 85.9672C105.448 86.0163 105.547 86.1049 105.617 86.2229C105.686 86.3114 105.726 86.4196 105.726 86.5376C105.726 87.0786 105.637 87.5015 105.448 87.7966C105.309 88.0031 105.081 88.1113 104.773 88.1113H104.078C103.691 88.1113 103.433 88.0326 103.304 87.8654C103.174 87.6982 103.115 87.3835 103.115 86.9212V84.6295C103.115 84.5705 103.085 84.541 103.025 84.541H102.569C102.519 84.541 102.479 84.5705 102.479 84.6295C102.43 85.4557 102.291 86.1442 102.082 86.6655C101.874 87.1868 101.506 87.6294 101.01 87.9638C100.891 88.0326 100.782 88.072 100.663 88.072C100.613 88.072 100.553 88.0622 100.484 88.0523C100.305 88.0031 100.146 87.8949 100.017 87.7376C99.9874 87.6982 99.9377 87.6786 99.8782 87.6786H96.4826C96.433 87.6786 96.4131 87.6982 96.4131 87.7376V87.7572C96.4131 87.8753 96.3734 87.9835 96.284 88.072C96.1947 88.1605 96.0954 88.1998 95.9663 88.1998C95.8373 88.1998 95.738 88.1605 95.6486 88.072C95.5593 87.9835 95.5195 87.8753 95.5195 87.7572V84.9443C95.5195 84.9246 95.5096 84.9148 95.4997 84.9148C95.4898 84.9148 95.4699 84.9148 95.46 84.9344C95.4203 84.9836 95.3805 85.0426 95.3408 85.0918C95.2614 85.1803 95.1621 85.2295 95.0529 85.2197C94.9437 85.2098 94.8444 85.1606 94.7749 85.0623C94.6955 84.9639 94.6558 84.8557 94.6558 84.7279C94.6558 84.5902 94.7054 84.4623 94.7948 84.3541C95.2713 83.764 95.6486 83.0558 95.9465 82.2296C95.9564 82.21 95.9564 82.1903 95.9365 82.1706C95.9167 82.1509 95.9068 82.1411 95.8869 82.1411H95.7578C95.5593 82.1411 95.4004 82.0723 95.2713 81.9444C95.1423 81.8165 95.0728 81.6493 95.0728 81.4625V80.6166C95.0728 80.4199 95.1423 80.2625 95.2713 80.1346C95.4004 80.0068 95.5692 79.9379 95.7578 79.9379H96.711C96.9095 79.9379 97.0684 80.0068 97.1975 80.1346C97.3265 80.2625 97.396 80.4297 97.396 80.6166V81.4625C97.396 81.6592 97.3265 81.8165 97.1975 81.9444C97.0684 82.0723 96.8996 82.1411 96.711 82.1411H96.5322V82.151C96.6216 82.1706 96.6812 82.2198 96.7209 82.2985C96.7606 82.3772 96.7606 82.4559 96.7308 82.5247C96.6911 82.6329 96.6415 82.7706 96.5819 82.928C96.572 82.9476 96.572 82.9673 96.5918 82.987C96.6117 83.0066 96.6216 83.0066 96.6315 83.0066H97.6045C97.6542 83.0066 97.6939 82.9771 97.7237 82.928C97.8527 82.564 97.9322 82.3083 97.9719 82.1411C97.9818 82.1313 97.9818 82.1313 97.9719 82.1313C97.9123 82.1313 97.8825 82.1018 97.8825 82.0526V80.6166C97.8825 80.4199 97.952 80.2625 98.091 80.1346C98.23 80.0068 98.3889 79.9379 98.5775 79.9379H99.6101C99.8087 79.9379 99.9675 80.0068 100.097 80.1346C100.226 80.2625 100.295 80.4297 100.295 80.6166V81.4625C100.295 81.6592 100.226 81.8165 100.097 81.9444C99.9675 82.0723 99.7987 82.1411 99.6101 82.1411H98.379C98.369 82.1411 98.369 82.1509 98.369 82.1608C98.518 82.1903 98.6172 82.2788 98.6867 82.4165C98.7165 82.4755 98.7364 82.5345 98.7364 82.6034C98.7364 82.6722 98.7165 82.7411 98.6768 82.8099C98.657 82.8493 98.6371 82.8886 98.6073 82.9378C98.5974 82.9575 98.5974 82.9771 98.6172 82.9968C98.6371 83.0165 98.647 83.0165 98.657 83.0165H99.9973C100.107 83.0165 100.196 83.0558 100.275 83.1345C100.355 83.2132 100.385 83.3017 100.385 83.4099C100.385 83.5181 100.345 83.6066 100.275 83.6853C100.206 83.764 100.107 83.8033 99.9973 83.8033H98.5279C98.4683 83.8033 98.4385 83.8328 98.4385 83.882V84.2853C98.4385 84.3443 98.4683 84.3738 98.5279 84.3738H99.7987C99.898 84.3738 99.9874 84.4033 100.047 84.4722C100.107 84.541 100.146 84.6197 100.146 84.718C100.146 84.8164 100.116 84.8951 100.047 84.9639C99.9774 85.0328 99.898 85.0623 99.7987 85.0623H98.5279C98.4683 85.0623 98.4385 85.0918 98.4385 85.1508V85.5639C98.4385 85.6131 98.4683 85.6426 98.5279 85.6426H99.7987C99.898 85.6426 99.9874 85.6819 100.047 85.7508C100.107 85.8196 100.146 85.8983 100.146 85.9967C100.146 86.095 100.116 86.1737 100.047 86.2426C99.9774 86.3114 99.898 86.3508 99.7987 86.3508H98.5279C98.4683 86.3508 98.4385 86.3803 98.4385 86.4294V86.8524C98.4385 86.9015 98.4683 86.9311 98.5279 86.9311H100.166C100.226 86.9311 100.285 86.9507 100.325 86.9999C100.365 87.0491 100.394 87.1081 100.394 87.1769C100.394 87.1966 100.404 87.2064 100.434 87.1868C100.821 86.9212 101.099 86.5966 101.258 86.1934C101.417 85.7901 101.516 85.2688 101.556 84.6295C101.566 84.5803 101.536 84.5508 101.487 84.5508C101.318 84.5508 101.169 84.4918 101.05 84.3738C100.931 84.2558 100.871 84.1181 100.871 83.9509V78.6101C100.871 78.4134 100.941 78.256 101.08 78.1282C101.219 78.0003 101.377 77.9315 101.566 77.9315H104.485C104.674 77.9315 104.832 78.0003 104.971 78.1282C105.11 78.256 105.18 78.4232 105.18 78.6101V83.8623C105.18 84.0591 105.11 84.2164 104.971 84.3443C104.832 84.4722 104.674 84.541 104.485 84.541H104.167C104.118 84.541 104.088 84.5705 104.088 84.6295V86.9114C104.088 87.0392 104.098 87.1278 104.128 87.1671C104.157 87.2065 104.157 87.2065 104.237 87.2065ZM96.8003 79.574C96.711 79.6625 96.5918 79.7019 96.4628 79.7019C96.3337 79.7019 96.2245 79.6625 96.1351 79.574C96.0458 79.4855 96.006 79.3773 96.006 79.2494V79.0921C96.006 79.0429 95.9763 79.0134 95.9266 79.0134H95.1919C95.0827 79.0134 94.9933 78.974 94.9139 78.8954C94.8345 78.8167 94.7948 78.7282 94.7948 78.62C94.7948 78.5118 94.8345 78.4233 94.9139 78.3446C94.9933 78.2659 95.0827 78.2265 95.1919 78.2265H95.9266C95.9763 78.2265 96.006 78.197 96.006 78.1479V77.9806C96.006 77.8626 96.0458 77.7544 96.1351 77.6561C96.2245 77.5577 96.3337 77.5184 96.4628 77.5184C96.5918 77.5184 96.711 77.5676 96.8003 77.6561C96.8897 77.7446 96.9393 77.8528 96.9393 77.9806V78.138C96.9393 78.1872 96.9592 78.2167 97.0088 78.2167H98.2797C98.3293 78.2167 98.3591 78.1872 98.3591 78.138V77.9806C98.3591 77.8626 98.4087 77.7544 98.4981 77.6561C98.5875 77.5577 98.7066 77.5184 98.8357 77.5184C98.9647 77.5184 99.0739 77.5676 99.1633 77.6561C99.2527 77.7446 99.2924 77.8528 99.2924 77.9806V78.138C99.2924 78.1872 99.3222 78.2167 99.3718 78.2167H100.047C100.156 78.2167 100.246 78.256 100.325 78.3347C100.404 78.4134 100.444 78.5019 100.444 78.6101C100.444 78.7183 100.404 78.8068 100.325 78.8855C100.246 78.9642 100.156 79.0036 100.047 79.0036H99.3718C99.3222 79.0036 99.2924 79.0331 99.2924 79.0822V79.2396C99.2924 79.3675 99.2527 79.4757 99.1633 79.5642C99.0739 79.6527 98.9647 79.692 98.8357 79.692C98.7066 79.692 98.5875 79.6527 98.4981 79.5642C98.4087 79.4757 98.3591 79.3675 98.3591 79.2396V79.0822C98.3591 79.0331 98.3293 79.0036 98.2797 79.0036H97.0088C96.9592 79.0036 96.9393 79.0331 96.9393 79.0822V79.2396C96.9393 79.3773 96.8897 79.4855 96.8003 79.574ZM95.877 80.6166C95.8174 80.6166 95.7876 80.6461 95.7876 80.7051V81.3641C95.7876 81.4231 95.8174 81.4526 95.877 81.4526H96.5322C96.5918 81.4526 96.6216 81.4231 96.6216 81.3641V80.7051C96.6216 80.6461 96.5918 80.6166 96.5322 80.6166H95.877ZM97.406 84.364C97.4655 84.364 97.4953 84.3345 97.4953 84.2754V83.8722C97.4953 83.823 97.4655 83.7935 97.406 83.7935H96.4826C96.423 83.7935 96.3933 83.823 96.3933 83.8722V84.2754C96.3933 84.3345 96.423 84.364 96.4826 84.364H97.406ZM97.406 85.6328C97.4655 85.6328 97.4953 85.6032 97.4953 85.5541V85.141C97.4953 85.082 97.4655 85.0525 97.406 85.0525H96.4826C96.423 85.0525 96.3933 85.082 96.3933 85.141V85.5541C96.3933 85.6032 96.423 85.6328 96.4826 85.6328H97.406ZM96.4826 86.3212C96.423 86.3212 96.3933 86.3508 96.3933 86.3999V86.8229C96.3933 86.872 96.423 86.9015 96.4826 86.9015H97.406C97.4655 86.9015 97.4953 86.872 97.4953 86.8229V86.3999C97.4953 86.3508 97.4655 86.3212 97.406 86.3212H96.4826ZM98.6967 80.6166C98.647 80.6166 98.6172 80.6461 98.6172 80.7051V81.3641C98.6172 81.4231 98.647 81.4526 98.6967 81.4526H99.4214C99.481 81.4526 99.5108 81.4231 99.5108 81.3641V80.7051C99.5108 80.6461 99.481 80.6166 99.4214 80.6166H98.6967ZM101.884 78.8659C101.824 78.8659 101.794 78.8954 101.794 78.9445V79.7609C101.794 79.8199 101.824 79.8494 101.884 79.8494H104.048C104.098 79.8494 104.128 79.8199 104.128 79.7609V78.9445C104.128 78.8954 104.098 78.8659 104.048 78.8659H101.884ZM101.884 80.6953C101.824 80.6953 101.794 80.7248 101.794 80.7838V81.61C101.794 81.6592 101.824 81.6887 101.884 81.6887H104.048C104.098 81.6887 104.128 81.6592 104.128 81.61V80.7838C104.128 80.7248 104.098 80.6953 104.048 80.6953H101.884ZM101.884 82.5542C101.824 82.5542 101.794 82.5837 101.794 82.6427V83.4689C101.794 83.5181 101.824 83.5476 101.884 83.5476H104.048C104.098 83.5476 104.128 83.5181 104.128 83.4689V82.6427C104.128 82.5837 104.098 82.5542 104.048 82.5542H101.884Z" fill="#769763"/>
<path d="M122.227 87.2458H123.577C123.776 87.2458 123.905 87.1573 123.965 86.99C124.024 86.8228 124.084 86.4491 124.113 85.8885C124.123 85.7704 124.183 85.6721 124.292 85.6131C124.401 85.554 124.511 85.5442 124.63 85.6032C124.789 85.6721 124.908 85.7803 125.007 85.918C125.086 86.036 125.126 86.154 125.126 86.2917C125.126 86.3114 125.126 86.3409 125.126 86.3606C125.047 87.1179 124.908 87.6195 124.709 87.8851C124.511 88.1506 124.163 88.2785 123.687 88.2785H122.108C121.522 88.2785 121.135 88.1703 120.936 87.9638C120.738 87.7572 120.638 87.3638 120.638 86.7737V82.9771C120.638 82.9279 120.609 82.8984 120.549 82.8984H118.762C118.712 82.8984 118.673 82.9279 118.673 82.9771C118.623 83.4886 118.563 83.9312 118.494 84.3049C118.424 84.6787 118.305 85.0721 118.156 85.4754C118.007 85.8786 117.819 86.2229 117.59 86.5278C117.362 86.8327 117.074 87.1179 116.707 87.3835C116.339 87.649 115.912 87.8949 115.426 88.0916C115.347 88.1211 115.267 88.1408 115.198 88.1408C115.128 88.1408 115.039 88.1211 114.969 88.0916C114.81 88.0425 114.681 87.9343 114.572 87.7966C114.522 87.7179 114.493 87.6392 114.493 87.5507C114.493 87.5113 114.493 87.472 114.503 87.4326C114.542 87.3048 114.622 87.2064 114.751 87.1573C115.178 86.9999 115.545 86.8032 115.863 86.577C116.181 86.3507 116.429 86.1147 116.617 85.8786C116.806 85.6426 116.965 85.3573 117.084 85.0229C117.203 84.6885 117.302 84.3738 117.362 84.0689C117.422 83.764 117.471 83.4001 117.511 82.9771C117.521 82.9279 117.491 82.8984 117.432 82.8984H114.999C114.85 82.8984 114.721 82.8493 114.622 82.7411C114.522 82.6329 114.463 82.5149 114.463 82.3673C114.463 82.2198 114.513 82.1018 114.622 81.9936C114.731 81.8854 114.85 81.846 114.999 81.846H119.06C119.119 81.846 119.149 81.8165 119.149 81.7575V78.02C119.149 77.8626 119.199 77.7347 119.308 77.6266C119.417 77.5184 119.546 77.4692 119.705 77.4692C119.864 77.4692 119.993 77.5184 120.102 77.6266C120.212 77.7347 120.261 77.8626 120.261 78.02V81.7575C120.261 81.8165 120.291 81.846 120.351 81.846H124.501C124.65 81.846 124.779 81.8952 124.878 81.9936C124.977 82.0919 125.037 82.2198 125.037 82.3673C125.037 82.5149 124.987 82.6427 124.878 82.7411C124.769 82.8394 124.65 82.8984 124.501 82.8984H121.86C121.8 82.8984 121.77 82.9279 121.77 82.9771V86.7737C121.77 86.9704 121.8 87.0884 121.86 87.1573C121.919 87.2261 122.019 87.2458 122.227 87.2458ZM117.561 80.3313C117.58 80.3904 117.6 80.4592 117.6 80.5281C117.6 80.6166 117.58 80.6953 117.541 80.7739C117.471 80.9215 117.362 81.0198 117.203 81.0887C117.144 81.1084 117.084 81.128 117.015 81.128C116.935 81.128 116.856 81.1084 116.786 81.069C116.647 81.0002 116.548 80.892 116.498 80.7444C116.28 80.1543 115.982 79.515 115.615 78.8462C115.575 78.7773 115.555 78.7085 115.555 78.6396C115.555 78.5904 115.565 78.5314 115.575 78.4823C115.625 78.3544 115.714 78.2659 115.843 78.2167C115.922 78.1872 116.002 78.1675 116.071 78.1675C116.141 78.1675 116.21 78.1773 116.28 78.2069C116.429 78.256 116.548 78.3544 116.627 78.4823C117.034 79.1314 117.342 79.751 117.561 80.3313ZM122.823 78.4626C122.892 78.3052 123.001 78.197 123.15 78.1282C123.24 78.079 123.319 78.0593 123.409 78.0593C123.478 78.0593 123.548 78.079 123.617 78.1085C123.776 78.1577 123.885 78.2659 123.945 78.4036C123.974 78.4724 123.994 78.5413 123.994 78.6101C123.994 78.6986 123.974 78.7773 123.935 78.856C123.548 79.6232 123.19 80.2822 122.853 80.8133C122.773 80.9313 122.664 81.0198 122.515 81.069C122.455 81.0887 122.386 81.0887 122.316 81.0887C122.247 81.0887 122.177 81.0789 122.098 81.0493C121.979 81.0002 121.889 80.9116 121.84 80.7838C121.82 80.7346 121.82 80.6953 121.82 80.6461C121.82 80.5674 121.84 80.4986 121.88 80.4297C122.227 79.7904 122.545 79.1412 122.823 78.4626Z" fill="#769763"/>
<path d="M137.328 82.6034C137.378 82.5936 137.418 82.5936 137.457 82.5936C137.547 82.5936 137.626 82.6132 137.706 82.6624C137.825 82.7411 137.884 82.8394 137.904 82.9771C137.914 83.0066 137.914 83.0362 137.914 83.0657C137.914 83.1739 137.884 83.2722 137.825 83.3804C137.735 83.4984 137.626 83.587 137.487 83.6263L136.584 83.8919C136.524 83.9115 136.494 83.941 136.494 84V87.0884C136.494 87.3835 136.465 87.6097 136.395 87.7671C136.326 87.9245 136.206 88.0425 136.038 88.1212C135.789 88.2392 135.412 88.2982 134.896 88.3179H134.886C134.737 88.3179 134.608 88.2687 134.489 88.1802C134.37 88.0818 134.28 87.954 134.231 87.7966C134.191 87.6786 134.211 87.5704 134.28 87.472C134.35 87.3737 134.449 87.3245 134.568 87.3245C134.677 87.3343 134.777 87.3343 134.856 87.3343C134.995 87.3343 135.104 87.3343 135.174 87.3245C135.263 87.3245 135.313 87.3048 135.353 87.2753C135.392 87.2458 135.402 87.1868 135.402 87.0884V84.3246C135.402 84.305 135.392 84.2853 135.382 84.2754C135.372 84.2656 135.343 84.2656 135.323 84.2656C135.084 84.3345 134.806 84.4131 134.499 84.4918C134.449 84.5115 134.399 84.5115 134.35 84.5115C134.26 84.5115 134.171 84.482 134.082 84.4328C133.953 84.3541 133.863 84.2459 133.824 84.0984C133.804 84.0492 133.804 84.0099 133.804 83.9607C133.804 83.8722 133.833 83.7738 133.883 83.6853C133.963 83.5673 134.072 83.4788 134.221 83.4394C134.687 83.3312 135.055 83.2427 135.323 83.164C135.372 83.1443 135.402 83.1148 135.402 83.0558V80.8822C135.402 80.833 135.372 80.8035 135.323 80.8035H134.36C134.221 80.8035 134.102 80.7543 134.002 80.6559C133.903 80.5576 133.853 80.4396 133.853 80.292C133.853 80.1445 133.903 80.0265 134.002 79.9379C134.102 79.8494 134.221 79.7904 134.36 79.7904H135.323C135.372 79.7904 135.402 79.7609 135.402 79.7019V78.0397C135.402 77.8823 135.452 77.7544 135.561 77.6561C135.67 77.5577 135.799 77.4987 135.948 77.4987C136.097 77.4987 136.226 77.5479 136.335 77.6561C136.445 77.7643 136.494 77.8921 136.494 78.0397V79.7019C136.494 79.7609 136.524 79.7904 136.584 79.7904H137.279C137.418 79.7904 137.537 79.8396 137.636 79.9379C137.735 80.0363 137.785 80.1543 137.785 80.292C137.785 80.4297 137.735 80.5576 137.636 80.6559C137.537 80.7543 137.418 80.8035 137.279 80.8035H136.584C136.524 80.8035 136.494 80.833 136.494 80.8822V82.7509C136.494 82.7706 136.504 82.7903 136.524 82.8099C136.544 82.8296 136.564 82.8296 136.584 82.8198C137.001 82.6919 137.259 82.6231 137.328 82.6034ZM139.006 88.2982C138.857 88.2982 138.728 88.249 138.629 88.1408C138.53 88.0326 138.47 87.9146 138.47 87.7769V83.764C138.47 83.5771 138.54 83.4197 138.679 83.282C138.818 83.1443 138.976 83.0755 139.165 83.0755H143.444C143.633 83.0755 143.792 83.1443 143.931 83.282C144.07 83.4197 144.139 83.5771 144.139 83.764V87.6982C144.139 87.8458 144.09 87.9736 143.98 88.0818C143.871 88.19 143.742 88.2392 143.593 88.2392H143.464C143.345 88.2392 143.246 88.1999 143.166 88.1113C143.087 88.0228 143.047 87.9245 143.047 87.8163C143.047 87.7868 143.027 87.7671 142.988 87.7671H139.602C139.562 87.7671 139.542 87.7868 139.542 87.8261C139.542 87.954 139.493 88.072 139.403 88.1605C139.314 88.249 139.195 88.2982 139.066 88.2982H139.006V88.2982ZM140.446 81.2559H142.859C143.127 81.2559 143.305 81.1969 143.405 81.0789C143.504 80.9608 143.573 80.7248 143.613 80.3609C143.633 80.2428 143.693 80.1445 143.802 80.0855C143.911 80.0265 144.03 80.0166 144.149 80.056C144.298 80.115 144.417 80.2133 144.497 80.3412C144.566 80.4396 144.606 80.5477 144.606 80.6658C144.606 80.6953 144.606 80.7248 144.606 80.7543C144.517 81.3248 144.348 81.7083 144.119 81.9149C143.891 82.1214 143.494 82.2296 142.928 82.2296H140.366C139.632 82.2296 139.135 82.1313 138.877 81.9247C138.619 81.7182 138.49 81.3346 138.49 80.7543V78.0298C138.49 77.8823 138.54 77.7544 138.649 77.6462C138.758 77.5381 138.877 77.4889 139.036 77.4889C139.195 77.4889 139.314 77.5381 139.423 77.6462C139.532 77.7544 139.582 77.8823 139.582 78.0298V79.0626C139.582 79.1118 139.612 79.1413 139.662 79.1314C140.803 78.8757 141.776 78.6003 142.581 78.2856C142.69 78.2462 142.799 78.2265 142.908 78.2265C142.968 78.2265 143.027 78.2265 143.087 78.2364C143.256 78.2659 143.405 78.3446 143.534 78.4626C143.613 78.5413 143.653 78.62 143.653 78.7183C143.653 78.7478 143.653 78.7773 143.643 78.797C143.623 78.9347 143.544 79.0232 143.415 79.0626C142.402 79.4167 141.161 79.7314 139.681 80.0068C139.632 80.0166 139.602 80.0461 139.602 80.115V80.7346C139.602 80.9313 139.652 81.069 139.761 81.128C139.87 81.1871 140.088 81.2559 140.446 81.2559ZM143.037 84.0886C143.037 84.0296 143.007 84 142.948 84H139.622C139.572 84 139.542 84.0296 139.542 84.0886V84.9049C139.542 84.9541 139.572 84.9836 139.622 84.9836H142.948C143.007 84.9836 143.037 84.9541 143.037 84.9049V84.0886ZM139.532 86.7835C139.532 86.8425 139.562 86.872 139.612 86.872H142.938C142.998 86.872 143.027 86.8425 143.027 86.7835V85.9278C143.027 85.8786 142.998 85.8491 142.938 85.8491H139.612C139.562 85.8491 139.532 85.8786 139.532 85.9278V86.7835Z" fill="#769763"/>
<path d="M163.818 78.7183C163.917 78.8167 163.967 78.9347 163.967 79.0822C163.967 79.2298 163.917 79.3478 163.818 79.4461C163.719 79.5445 163.599 79.5937 163.46 79.5937H159.32C159.271 79.5937 159.231 79.6232 159.231 79.6822C159.191 79.9576 159.142 80.2625 159.092 80.5772C159.082 80.6264 159.112 80.6559 159.161 80.6559H162.756C162.954 80.6559 163.113 80.7248 163.242 80.8625C163.371 81.0002 163.441 81.1575 163.441 81.3444V87.0982C163.441 87.3933 163.401 87.6294 163.312 87.7769C163.222 87.9244 163.083 88.0425 162.865 88.1211C162.597 88.2293 162.08 88.2785 161.326 88.2785C161.177 88.2785 161.038 88.2392 160.919 88.1507C160.8 88.0621 160.71 87.9441 160.651 87.7966C160.601 87.6884 160.611 87.59 160.671 87.4917C160.73 87.3933 160.819 87.354 160.939 87.3638C161.137 87.3638 161.306 87.3638 161.465 87.3638C161.693 87.3638 161.882 87.3638 162.031 87.354C162.13 87.354 162.2 87.3343 162.239 87.3048C162.279 87.2753 162.299 87.2064 162.299 87.0982V81.7772C162.299 81.7182 162.269 81.6887 162.219 81.6887H155.309C155.259 81.6887 155.23 81.7182 155.23 81.7772V87.7376C155.23 87.8949 155.18 88.0228 155.071 88.131C154.962 88.2392 154.833 88.2884 154.684 88.2884C154.535 88.2884 154.406 88.2392 154.296 88.131C154.187 88.0228 154.138 87.8949 154.138 87.7376V81.3542C154.138 81.1674 154.207 81.01 154.336 80.8723C154.465 80.7346 154.634 80.6658 154.823 80.6658H157.92C157.97 80.6658 158.01 80.6362 158.01 80.5871C158.02 80.5379 158.039 80.41 158.059 80.1936C158.079 79.9773 158.109 79.8101 158.119 79.6822C158.129 79.6232 158.099 79.5937 158.039 79.5937H154.088C153.949 79.5937 153.83 79.5445 153.73 79.4461C153.631 79.3478 153.582 79.2298 153.582 79.0822C153.582 78.9347 153.631 78.8167 153.73 78.7183C153.83 78.6199 153.949 78.5708 154.088 78.5708H158.149C158.208 78.5708 158.248 78.5413 158.258 78.4921C158.268 78.3544 158.278 78.2167 158.278 78.079C158.298 77.9216 158.367 77.7839 158.486 77.6757C158.595 77.5872 158.715 77.538 158.864 77.538C158.883 77.538 158.903 77.538 158.923 77.538C159.092 77.5577 159.231 77.6266 159.33 77.7544C159.42 77.8626 159.459 77.9806 159.459 78.1085C159.459 78.1282 159.459 78.1577 159.459 78.1872C159.439 78.2659 159.429 78.3642 159.41 78.4823C159.4 78.5314 159.429 78.5609 159.489 78.5609H163.47C163.599 78.5609 163.719 78.6199 163.818 78.7183ZM161.604 85.3278C161.693 85.4164 161.733 85.5147 161.733 85.6426C161.733 85.7704 161.693 85.8688 161.604 85.9573C161.514 86.0458 161.415 86.0852 161.296 86.0852H159.34C159.29 86.0852 159.261 86.1147 159.261 86.1737V87.5015C159.261 87.649 159.211 87.7671 159.112 87.8753C159.012 87.9835 158.883 88.0228 158.734 88.0228C158.586 88.0228 158.466 87.9736 158.357 87.8753C158.248 87.7769 158.208 87.649 158.208 87.5015V86.1737C158.208 86.1147 158.178 86.0852 158.119 86.0852H156.252C156.133 86.0852 156.034 86.0458 155.945 85.9573C155.855 85.8688 155.815 85.7704 155.815 85.6426C155.815 85.5147 155.855 85.4164 155.945 85.3278C156.034 85.2393 156.133 85.2 156.252 85.2H158.119C158.178 85.2 158.208 85.1705 158.208 85.1114V84.2754C158.208 84.2262 158.178 84.1967 158.119 84.1967H156.501C156.381 84.1967 156.272 84.1574 156.193 84.0689C156.113 83.9804 156.074 83.882 156.074 83.764C156.074 83.6459 156.113 83.5476 156.193 83.4591C156.272 83.3705 156.381 83.3312 156.501 83.3312H157.066C157.086 83.3312 157.106 83.3214 157.126 83.3017C157.146 83.282 157.146 83.2624 157.136 83.2427C157.066 82.9968 156.957 82.7214 156.808 82.4165C156.759 82.3181 156.749 82.2099 156.798 82.1116C156.848 82.0132 156.918 81.9444 157.027 81.905C157.076 81.8952 157.136 81.8952 157.176 81.8952C157.255 81.8952 157.335 81.9149 157.404 81.9444C157.523 81.9936 157.613 82.0723 157.672 82.1903C157.742 82.328 157.811 82.4657 157.871 82.6034C157.9 82.6722 157.92 82.7411 157.92 82.8099C157.92 82.8886 157.9 82.9575 157.861 83.0263C157.791 83.1738 157.672 83.2722 157.513 83.3115C157.513 83.3312 157.513 83.3312 157.523 83.3312H159.31C159.36 83.3312 159.4 83.3017 159.429 83.2525C159.588 82.8984 159.717 82.564 159.827 82.2493C159.876 82.1116 159.956 82.0034 160.085 81.9346C160.174 81.8854 160.263 81.8559 160.353 81.8559C160.393 81.8559 160.432 81.8559 160.472 81.8657C160.601 81.8952 160.7 81.9739 160.76 82.0821C160.79 82.1509 160.81 82.2198 160.81 82.2788C160.81 82.328 160.8 82.387 160.77 82.4362C160.621 82.7706 160.502 83.046 160.393 83.2427C160.383 83.2624 160.383 83.2722 160.402 83.2919C160.422 83.3115 160.432 83.3214 160.452 83.3214H161.058C161.177 83.3214 161.286 83.3607 161.375 83.4492C161.465 83.5378 161.505 83.6361 161.505 83.7541C161.505 83.8722 161.465 83.9705 161.375 84.059C161.286 84.1476 161.187 84.1869 161.058 84.1869H159.32C159.271 84.1869 159.241 84.2164 159.241 84.2656V85.1114C159.241 85.1705 159.271 85.2 159.32 85.2H161.276C161.405 85.2 161.514 85.2491 161.604 85.3278Z" fill="#769763"/>
</g>
<defs>
<clipPath id="clip0_98_5477">
<rect width="168.239" height="98.3068" fill="white" transform="translate(0.880615 0.0827103)"/>
</clipPath>
</defs>
</svg>
